<?xml version="1.0" encoding="UTF-8" standalone="no"?>
<!-- Created with Inkscape (http://www.inkscape.org/) -->

<svg
   xmlns:dc="http://purl.org/dc/elements/1.1/"
   xmlns:cc="http://creativecommons.org/ns#"
   xmlns:rdf="http://www.w3.org/1999/02/22-rdf-syntax-ns#"
   xmlns:svg="http://www.w3.org/2000/svg"
   xmlns="http://www.w3.org/2000/svg"
   xmlns:sodipodi="http://sodipodi.sourceforge.net/DTD/sodipodi-0.dtd"
   xmlns:inkscape="http://www.inkscape.org/namespaces/inkscape"
   width="744.09448819"
   height="1052.3622047"
   id="svg2"
   sodipodi:version="0.32"
   inkscape:version="0.47 r22583"
   sodipodi:docname="stc2.svg"
   inkscape:output_extension="org.inkscape.output.svg.inkscape"
   version="1.1">
  <sodipodi:namedview
     id="base"
     pagecolor="#ffffff"
     bordercolor="#666666"
     borderopacity="1.0"
     gridtolerance="10000"
     guidetolerance="10"
     objecttolerance="10"
     inkscape:pageopacity="0.0"
     inkscape:pageshadow="2"
     inkscape:zoom="2.8"
     inkscape:cx="355.4306"
     inkscape:cy="904.87999"
     inkscape:document-units="px"
     inkscape:current-layer="layer1"
     inkscape:window-width="1133"
     inkscape:window-height="918"
     inkscape:window-x="1348"
     inkscape:window-y="25"
     showgrid="false"
     inkscape:window-maximized="0" />
  <defs
     id="defs4">
    <inkscape:perspective
       sodipodi:type="inkscape:persp3d"
       inkscape:vp_x="0 : 526.18109 : 1"
       inkscape:vp_y="0 : 1000 : 0"
       inkscape:vp_z="744.09448 : 526.18109 : 1"
       inkscape:persp3d-origin="372.04724 : 350.78739 : 1"
       id="perspective4270" />
    <inkscape:perspective
       sodipodi:type="inkscape:persp3d"
       inkscape:vp_x="0 : 0.5 : 1"
       inkscape:vp_y="0 : 1000 : 0"
       inkscape:vp_z="1 : 0.5 : 1"
       inkscape:persp3d-origin="0.5 : 0.33333333 : 1"
       id="perspective4358" />
    <inkscape:perspective
       sodipodi:type="inkscape:persp3d"
       inkscape:vp_x="0 : 0.5 : 1"
       inkscape:vp_y="0 : 1000 : 0"
       inkscape:vp_z="1 : 0.5 : 1"
       inkscape:persp3d-origin="0.5 : 0.33333333 : 1"
       id="perspective4380" />
    <inkscape:perspective
       sodipodi:type="inkscape:persp3d"
       inkscape:vp_x="0 : 0.5 : 1"
       inkscape:vp_y="0 : 1000 : 0"
       inkscape:vp_z="1 : 0.5 : 1"
       inkscape:persp3d-origin="0.5 : 0.33333333 : 1"
       id="perspective4402" />
    <inkscape:perspective
       sodipodi:type="inkscape:persp3d"
       inkscape:vp_x="0 : 0.5 : 1"
       inkscape:vp_y="0 : 1000 : 0"
       inkscape:vp_z="1 : 0.5 : 1"
       inkscape:persp3d-origin="0.5 : 0.33333333 : 1"
       id="perspective4426" />
    <inkscape:perspective
       sodipodi:type="inkscape:persp3d"
       inkscape:vp_x="0 : 0.5 : 1"
       inkscape:vp_y="0 : 1000 : 0"
       inkscape:vp_z="1 : 0.5 : 1"
       inkscape:persp3d-origin="0.5 : 0.33333333 : 1"
       id="perspective4448" />
    <inkscape:perspective
       sodipodi:type="inkscape:persp3d"
       inkscape:vp_x="0 : 0.5 : 1"
       inkscape:vp_y="0 : 1000 : 0"
       inkscape:vp_z="1 : 0.5 : 1"
       inkscape:persp3d-origin="0.5 : 0.33333333 : 1"
       id="perspective4472" />
    <inkscape:perspective
       sodipodi:type="inkscape:persp3d"
       inkscape:vp_x="0 : 0.5 : 1"
       inkscape:vp_y="0 : 1000 : 0"
       inkscape:vp_z="1 : 0.5 : 1"
       inkscape:persp3d-origin="0.5 : 0.33333333 : 1"
       id="perspective4497" />
    <inkscape:perspective
       sodipodi:type="inkscape:persp3d"
       inkscape:vp_x="0 : 0.5 : 1"
       inkscape:vp_y="0 : 1000 : 0"
       inkscape:vp_z="1 : 0.5 : 1"
       inkscape:persp3d-origin="0.5 : 0.33333333 : 1"
       id="perspective4523" />
    <inkscape:perspective
       sodipodi:type="inkscape:persp3d"
       inkscape:vp_x="0 : 0.5 : 1"
       inkscape:vp_y="0 : 1000 : 0"
       inkscape:vp_z="1 : 0.5 : 1"
       inkscape:persp3d-origin="0.5 : 0.33333333 : 1"
       id="perspective4523-3" />
    <inkscape:perspective
       sodipodi:type="inkscape:persp3d"
       inkscape:vp_x="0 : 0.5 : 1"
       inkscape:vp_y="0 : 1000 : 0"
       inkscape:vp_z="1 : 0.5 : 1"
       inkscape:persp3d-origin="0.5 : 0.33333333 : 1"
       id="perspective4523-2" />
    <inkscape:perspective
       sodipodi:type="inkscape:persp3d"
       inkscape:vp_x="0 : 0.5 : 1"
       inkscape:vp_y="0 : 1000 : 0"
       inkscape:vp_z="1 : 0.5 : 1"
       inkscape:persp3d-origin="0.5 : 0.33333333 : 1"
       id="perspective4563" />
    <inkscape:perspective
       sodipodi:type="inkscape:persp3d"
       inkscape:vp_x="0 : 0.5 : 1"
       inkscape:vp_y="0 : 1000 : 0"
       inkscape:vp_z="1 : 0.5 : 1"
       inkscape:persp3d-origin="0.5 : 0.33333333 : 1"
       id="perspective4563-7" />
  </defs>
  <metadata
     id="metadata7">
    <rdf:RDF>
      <cc:Work
         rdf:about="">
        <dc:format>image/svg+xml</dc:format>
        <dc:type
           rdf:resource="http://purl.org/dc/dcmitype/StillImage" />
        <dc:title />
      </cc:Work>
    </rdf:RDF>
  </metadata>
  <g
     inkscape:label="Layer 1"
     inkscape:groupmode="layer"
     id="layer1">
    <path
       transform="matrix(0.88069687,0,0,0.88069687,30.925926,8.8427197)"
       d="m 347.23992,152.31627 a 14.647212,14.647212 0 1 1 -29.29442,0 14.647212,14.647212 0 1 1 29.29442,0 z"
       sodipodi:ry="14.647212"
       sodipodi:rx="14.647212"
       sodipodi:cy="152.31627"
       sodipodi:cx="332.59271"
       id="path4348-7-9"
       style="fill:#d9d9d9;stroke:#000000;stroke-width:0.34063934;stroke-miterlimit:4;stroke-opacity:1;stroke-dasharray:none;stroke-dashoffset:0;fill-opacity:0.44999999000000002"
       sodipodi:type="arc" />
    <path
       transform="matrix(1.1259005,0,0,1.1259005,-41.191,-23.012876)"
       d="m 347.23992,152.31627 a 14.647212,14.647212 0 1 1 -29.29442,0 14.647212,14.647212 0 1 1 29.29442,0 z"
       sodipodi:ry="14.647212"
       sodipodi:rx="14.647212"
       sodipodi:cy="152.31627"
       sodipodi:cx="332.59271"
       id="path4348-7-9-7"
       style="fill:#d9d9d9;fill-opacity:0.45000000000000001;stroke:#000000;stroke-width:0.26645339;stroke-miterlimit:4;stroke-opacity:1;stroke-dasharray:none;stroke-dashoffset:0"
       sodipodi:type="arc" />
    <path
       sodipodi:nodetypes="csssc"
       id="path5244"
       d="m 324.76404,142.97236 c 0,0 67.58025,51.35747 72.85725,55.43212 4.69826,3.62777 13.00919,7.45883 16.28871,6.18718 2.90766,-1.12746 6.79903,-8.66928 7.57615,-11.11167 0.99064,-3.11345 2.27284,-7.82868 2.27284,-7.82868"
       style="fill:none;stroke:#888888;stroke-width:1;stroke-linecap:butt;stroke-linejoin:miter;stroke-opacity:1;stroke-miterlimit:4;stroke-dasharray:2,4;stroke-dashoffset:0" />
    <path
       transform="matrix(0.51754158,0.59470899,-0.78330399,0.64302546,277.06748,-164.97712)"
       sodipodi:type="arc"
       style="fill:none;stroke:#000000;stroke-width:1px;stroke-linecap:butt;stroke-linejoin:miter;stroke-opacity:1"
       id="path2160"
       sodipodi:cx="379.28571"
       sodipodi:cy="157.71933"
       sodipodi:rx="122.98631"
       sodipodi:ry="86.818443"
       d="m 502.27202,157.71933 a 122.98631,86.818443 0 1 1 -245.97263,0 122.98631,86.818443 0 1 1 245.97263,0 z" />
    <path
       style="fill:#c8c8c8;fill-rule:evenodd;stroke:#000000;stroke-width:1px;stroke-linecap:butt;stroke-linejoin:miter;stroke-opacity:1;fill-opacity:1"
       d="M 323.57143,118.07647 C 342.38225,104.33818 350.51135,93.139685 367.85714,95.219324 C 385.20293,97.298963 419.06235,103.22549 417.14286,135.21932 C 415.22337,167.21315 419.36426,167.72817 415.38252,190.67363 C 411.40078,213.6191 384.71926,178.18991 372.14286,156.6479 C 359.56646,135.10589 371.43445,121.3381 351.42857,123.07647 C 331.42269,124.81484 304.76061,131.81476 323.57143,118.07647 z "
       id="path3136"
       sodipodi:nodetypes="czzzzzz" />
    <path
       style="fill:#c8c8c8;fill-rule:evenodd;stroke:#000000;stroke-width:1px;stroke-linecap:butt;stroke-linejoin:miter;stroke-opacity:1;fill-opacity:1"
       d="M 282.85714,157.36218 C 286.13756,149.29153 279.61761,144.77731 334.28571,171.6479 C 388.95381,198.51849 362.88637,196.49676 370.71429,213.79075 C 378.54221,231.08474 409.66055,211.92849 414.28571,213.07647 C 418.91087,214.22445 419.92838,228.79075 388.57143,227.36218 C 357.21448,225.93361 259.43982,220.67039 282.85714,204.50504 C 306.27446,188.33969 279.57672,165.43283 282.85714,157.36218 z "
       id="path3138"
       sodipodi:nodetypes="czzzzzz" />
    <path
       sodipodi:type="arc"
       style="fill:#000000;fill-opacity:1;stroke:#000000;stroke-opacity:1"
       id="path3146"
       sodipodi:cx="289.66125"
       sodipodi:cy="127.31499"
       sodipodi:rx="4.2931485"
       sodipodi:ry="4.7982244"
       d="m 293.9544,127.31499 a 4.2931485,4.7982244 0 1 1 -8.58629,0 4.2931485,4.7982244 0 1 1 8.58629,0 z"
       transform="matrix(0.4204395,0,0,0.4204395,301.97396,131.87051)" />
    <path
       sodipodi:type="arc"
       style="fill:#000000;fill-opacity:1;stroke:#000000;stroke-opacity:1"
       id="path3144-4"
       sodipodi:cx="289.66125"
       sodipodi:cy="127.31499"
       sodipodi:rx="4.2931485"
       sodipodi:ry="4.7982244"
       d="m 293.9544,127.31499 a 4.2931485,4.7982244 0 1 1 -8.58629,0 4.2931485,4.7982244 0 1 1 8.58629,0 z"
       transform="matrix(0.4204395,0,0,0.4204395,203.23155,89.696643)" />
    <path
       transform="matrix(1.066689,0,0,1.066689,-30.387755,-19.628005)"
       d="m 347.23992,152.31627 a 14.647212,14.647212 0 1 1 -29.29442,0 14.647212,14.647212 0 1 1 29.29442,0 z"
       sodipodi:ry="14.647212"
       sodipodi:rx="14.647212"
       sodipodi:cy="152.31627"
       sodipodi:cx="332.59271"
       id="path4348-7"
       style="fill:none;stroke:#000000;stroke-width:0.28124411;stroke-miterlimit:4;stroke-opacity:1;stroke-dasharray:none;stroke-dashoffset:0"
       sodipodi:type="arc" />
    <path
       sodipodi:type="arc"
       style="fill:#000000;fill-opacity:1;stroke:#000000;stroke-opacity:1"
       id="path3144-4-0"
       sodipodi:cx="289.66125"
       sodipodi:cy="127.31499"
       sodipodi:rx="4.2931485"
       sodipodi:ry="4.7982244"
       d="m 293.9544,127.31499 a 4.2931485,4.7982244 0 1 1 -8.58629,0 4.2931485,4.7982244 0 1 1 8.58629,0 z"
       transform="matrix(0.4204395,0,0,0.4204395,212.23282,96.333932)" />
    <path
       sodipodi:nodetypes="csc"
       id="path4462"
       d="m 325,143.5229 c 0,0 12.3919,-14.5156 10.53571,-6.875 -1.9831,8.16297 -1.25,13.48214 -1.25,13.48214"
       style="fill:none;stroke:#000000;stroke-width:1px;stroke-linecap:butt;stroke-linejoin:miter;stroke-opacity:1" />
    <path
       transform="matrix(1.3636764,0,0,1.3636764,-119.57563,-59.410424)"
       d="m 347.23992,152.31627 a 14.647212,14.647212 0 1 1 -29.29442,0 14.647212,14.647212 0 1 1 29.29442,0 z"
       sodipodi:ry="14.647212"
       sodipodi:rx="14.647212"
       sodipodi:cy="152.31627"
       sodipodi:cx="332.59271"
       id="path4348-7-7"
       style="fill:none;stroke:#000000;stroke-width:0.3666559;stroke-miterlimit:4;stroke-opacity:1;stroke-dasharray:none;stroke-dashoffset:0"
       sodipodi:type="arc" />
    <path
       sodipodi:type="arc"
       style="fill:#000000;fill-opacity:1;stroke:#000000;stroke-opacity:1"
       id="path3144-4-0-5"
       sodipodi:cx="289.66125"
       sodipodi:cy="127.31499"
       sodipodi:rx="4.2931485"
       sodipodi:ry="4.7982244"
       d="m 293.9544,127.31499 a 4.2931485,4.7982244 0 1 1 -8.58629,0 4.2931485,4.7982244 0 1 1 8.58629,0 z"
       transform="matrix(0.4204395,0,0,0.4204395,223.84497,105.10147)" />
    <path
       sodipodi:nodetypes="cscc"
       id="path4511"
       d="m 333.98169,149.91715 c 0,0 -12.3366,21.5497 3.53553,16.28871 6.60377,-2.18889 8.20749,-6.81853 8.20749,-6.81853 l 0,0"
       style="fill:none;stroke:#000000;stroke-width:1px;stroke-linecap:butt;stroke-linejoin:miter;stroke-opacity:1" />
    <path
       sodipodi:nodetypes="ccc"
       id="path4513"
       d="m 345.71429,158.43361 c 0,0 13.92857,-1.42857 17.32143,4.46429 5.53571,5.53571 -7.56128,1.83212 -0.95414,9.15355"
       style="fill:none;stroke:#000000;stroke-width:1px;stroke-linecap:butt;stroke-linejoin:miter;stroke-opacity:1" />
    <path
       sodipodi:type="arc"
       style="fill:#000000;fill-opacity:1;stroke:#000000;stroke-opacity:1"
       id="path3144-4-0-5-7"
       sodipodi:cx="289.66125"
       sodipodi:cy="127.31499"
       sodipodi:rx="4.2931485"
       sodipodi:ry="4.7982244"
       d="m 293.9544,127.31499 a 4.2931485,4.7982244 0 1 1 -8.58629,0 4.2931485,4.7982244 0 1 1 8.58629,0 z"
       transform="matrix(0.4204395,0,0,0.4204395,240.22838,117.85464)" />
    <text
       sodipodi:linespacing="125%"
       id="text3039"
       y="173.43362"
       x="420.71426"
       style="font-size:24px;font-style:italic;font-variant:normal;font-weight:normal;font-stretch:normal;text-align:start;line-height:125%;writing-mode:lr-tb;text-anchor:start;fill:#000000;fill-opacity:1;stroke:none;font-family:Serif;-inkscape-font-specification:Sans"
       xml:space="preserve"><tspan
         y="173.43362"
         x="420.71426"
         id="tspan3041"
         sodipodi:role="line">q2</tspan></text>
    <text
       sodipodi:linespacing="125%"
       id="text3043"
       y="141.29077"
       x="284.64285"
       style="font-size:24px;font-style:italic;font-variant:normal;font-weight:normal;font-stretch:normal;text-align:start;line-height:125%;writing-mode:lr-tb;text-anchor:start;fill:#000000;fill-opacity:1;stroke:none;font-family:Serif;-inkscape-font-specification:Sans"
       xml:space="preserve"><tspan
         y="141.29077"
         x="284.64285"
         id="tspan3045"
         sodipodi:role="line">q1</tspan></text>
    <text
       xml:space="preserve"
       style="font-size:24px;font-style:italic;font-variant:normal;font-weight:normal;font-stretch:normal;text-align:start;line-height:125%;writing-mode:lr-tb;text-anchor:start;fill:#000000;fill-opacity:1;stroke:none;font-family:Serif;-inkscape-font-specification:Sans"
       x="410.71429"
       y="85.576477"
       id="text3142"
       sodipodi:linespacing="125%"><tspan
         sodipodi:role="line"
         id="tspan3144"
         x="410.71429"
         y="85.576477">CS</tspan></text>
  </g>
</svg>
